# xmcd CD database file
# Copyright (C) 1993-1998 Ti Kan
#
# Track frame offsets:
#	183
#	2683
#	23608
#	43093
#	67278
#	93033
#	116028
#	136733
#	162935
#	179403
#	193778
#	204480
#	225683
#	250900
#
# Disc length: 3833 seconds
#
# Revision: 1
# Processed by: cddbd v1.4b41PL1 Copyright (c) Steve Scherf et al.
# Submitted via: CDValet v3.31 - Copyright (c) 1997 Greg Leichner
#
DISCID=ba0ef70e
DTITLE=Jammin' - Playground
DYEAR=1900
DGENRE=
TTITLE0=Guitar Jungle
TTITLE1=Pass It On
TTITLE2=Priotities
TTITLE3=Happiness
TTITLE4=Quitana Roo
TTITLE5=Stay
TTITLE6=I Don't Wanna Sleep
TTITLE7=Don't Hurt Yourself
TTITLE8=Trouble In The Temple
TTITLE9=Scale Walk
TTITLE10=Juxtapositions 1
TTITLE11=Juxtapositions 2
TTITLE12=Volcano's Wakin' Up
TTITLE13=Demon Dance
EXTD=
EXTT0=
EXTT1=
EXTT2=
EXTT3=
EXTT4=
EXTT5=
EXTT6=
EXTT7=
EXTT8=
EXTT9=
EXTT10=
EXTT11=
EXTT12=
EXTT13=
PLAYORDER=
